<svg width="20" height="21" viewBox="0 0 20 21" fill="none" xmlns="http://www.w3.org/2000/svg">
<path fill-rule="evenodd" clip-rule="evenodd" d="M15.7068 16.207C15.5193 16.3945 15.265 16.4998 14.9998 16.4998C14.7346 16.4998 14.4803 16.3945 14.2928 16.207L9.29279 11.207C9.10532 11.0195 9 10.7652 9 10.5C9 10.2348 9.10532 9.98053 9.29279 9.793L14.2928 4.793C14.385 4.69749 14.4954 4.6213 14.6174 4.5689C14.7394 4.51649 14.8706 4.4889 15.0034 4.48775C15.1362 4.48659 15.2678 4.51189 15.3907 4.56218C15.5136 4.61246 15.6253 4.68671 15.7192 4.7806C15.8131 4.87449 15.8873 4.98615 15.9376 5.10904C15.9879 5.23194 16.0132 5.36362 16.012 5.4964C16.0109 5.62918 15.9833 5.7604 15.9309 5.8824C15.8785 6.00441 15.8023 6.11475 15.7068 6.207L11.4138 10.5L15.7068 14.793C15.8943 14.9805 15.9996 15.2348 15.9996 15.5C15.9996 15.7652 15.8943 16.0195 15.7068 16.207Z" fill="#6998AB"/>
<rect x="5" y="4.5" width="2" height="12" rx="1" fill="#6998AB"/>
</svg>
